<svg id="Capa_1" enable-background="new 0 0 512 512" height="512" viewBox="0 0 512 512" width="512" xmlns="http://www.w3.org/2000/svg" fill="currentColor"><path id="XMLID_220_" d="m182.841 413.092h-60.803c-3.442 0-6.642-1.77-8.471-4.686s-2.031-6.566-.533-9.666l22.214-45.968v-39.949c0-1.674.42-3.322 1.223-4.792l30.171-55.261-14.029-37.587h-5.662c-4.111 0-7.803-2.516-9.307-6.341l-15.669-39.854c-1.685-4.286-.225-9.169 3.537-11.826l31.338-22.142c1.688-1.192 3.704-1.833 5.771-1.833h2.062l-8.776-33.82h-6.23c-3.869 0-7.39-2.231-9.042-5.729s-1.138-7.636 1.319-10.623l52.118-63.358c1.899-2.31 4.732-3.647 7.723-3.647h67.893l16.286-13.67c3.989-3.348 9.878-3.074 13.54.629l29.976 30.316c.291.294.563.606.815.934l32.95 42.834c3.367 4.377 2.548 10.656-1.829 14.023-4.378 3.368-10.656 2.548-14.023-1.829l-32.573-42.341-23.059-23.322-12.016 10.086c-1.801 1.512-4.077 2.34-6.429 2.34h-66.811l-37.147 45.16c1.903 1.33 3.338 3.316 3.953 5.687l13.966 53.82c.778 2.996.124 6.183-1.77 8.631s-4.814 3.881-7.909 3.881h-11.812l-22.338 15.782 10.306 26.213h5.79c4.174 0 7.909 2.593 9.369 6.503l18.054 48.37c1.015 2.718.799 5.742-.592 8.289l-31.137 57.031v39.686c0 1.507-.34 2.994-.996 4.351l-16.275 33.679h38.866l14.084-26.388c1.114-2.088 2.933-3.712 5.132-4.585l69.49-27.591c2.436-.969 5.154-.94 7.571.078l28.537 12.016 5.002-16.881c1.258-4.246 5.159-7.159 9.588-7.159h37.789l24.233-33.754 5.995-38.217h-.572c-5.523 0-10-4.477-10-10v-74.815c0-5.523 4.477-10 10-10s10 4.477 10 10v64.815h2.263c2.923 0 5.699 1.279 7.599 3.5s2.733 5.162 2.28 8.05l-8.175 52.117c-.243 1.545-.844 3.012-1.756 4.282l-28.613 39.854c-1.878 2.617-4.902 4.168-8.123 4.168h-35.453l-6.054 20.432c-.808 2.727-2.739 4.981-5.31 6.198-2.57 1.216-5.538 1.28-8.159.178l-35.062-14.763-62.282 24.729-15.183 28.446c-1.739 3.255-5.131 5.289-8.823 5.289z"/><path id="XMLID_217_" d="m190.746 512h-57.788c-3.514 0-6.776-1.584-8.95-4.346l-15.539-19.748c-3.496-4.436-3.179-10.859.742-14.936l16.646-17.313c7.35-7.643 17.646-12.026 28.249-12.026h46.73c3.314 0 6.414 1.642 8.275 4.385l13.224 19.487c2.471 3.642 2.271 8.472-.494 11.896l-23.315 28.883c-1.897 2.351-4.757 3.718-7.78 3.718zm-53.605-20h48.827l15.659-19.399-6.088-8.971h-41.431c-5.192 0-10.234 2.146-13.833 5.889l-11.452 11.911z"/><path id="XMLID_216_" d="m383.693 130.02c-2.63 0-5.21-1.06-7.07-2.92-1.86-1.87-2.93-4.44-2.93-7.07 0-2.64 1.07-5.22 2.93-7.08s4.44-2.92 7.07-2.92 5.21 1.06 7.07 2.92c1.86 1.87 2.93 4.44 2.93 7.08 0 2.63-1.07 5.2-2.93 7.07-1.86 1.86-4.44 2.92-7.07 2.92z"/></svg>